<?xml version="1.0" standalone="no"?><!DOCTYPE svg PUBLIC "-//W3C//DTD SVG 1.1//EN" "http://www.w3.org/Graphics/SVG/1.1/DTD/svg11.dtd"><svg t="1640770397839" class="icon" viewBox="0 0 1024 1024" version="1.1" xmlns="http://www.w3.org/2000/svg" p-id="2303" xmlns:xlink="http://www.w3.org/1999/xlink" width="200" height="200"><defs><style type="text/css"></style></defs><path d="M481.3 494.7h61.4v64.6h-61.4zM481.8 627.3h61.9v63.3h-61.9zM480.8 362.6h61.8v61.2h-61.8zM348.1 363.2h59.8v62.1h-59.8zM612.6 362.1H673v62.7h-60.4zM347.2 494.9h62v63.5h-62zM612.5 495h62v63.3h-62zM346.9 627.6h61.5v63.7h-61.5zM613.2 627h61.2v63.6h-61.2z" p-id="2304"></path><path d="M897.3 893.9V594.4c0-49-39.7-88.7-88.7-88.7H784V339.4c0-49.1-39.8-88.8-88.8-88.8H529.9v-72.4h89.8v-43.3h-89.8v-73h-46.6v72.8h-89.8V178h89.8v72.4H318.2c-49.1 0-88.8 39.8-88.8 88.8v166.3h-19.8c-49 0-88.7 39.7-88.7 88.7v299.5H59.1v44.4h900v-44.4h-61.8z m-730.6 0V594.4c0-24.5 19.9-44.4 44.4-44.4h18.3v343.8h-62.7z m107 0V339.3c0-24.5 19.9-44.4 44.4-44.4h377.1c24.5 0 44.4 19.9 44.4 44.4v554.6H273.7z m580.7 0h-70.5V550H810c24.5 0 44.4 19.9 44.4 44.4v299.5z" p-id="2305"></path></svg>